<?xml version="1.0" encoding="utf-8"?>
<!-- Generator: Adobe Illustrator 21.1.0, SVG Export Plug-In . SVG Version: 6.00 Build 0)  -->
<svg version="1.1" id="Слой_1" xmlns="http://www.w3.org/2000/svg" xmlns:xlink="http://www.w3.org/1999/xlink" x="0px" y="0px"
	 viewBox="0 0 180.9 126.1" style="enable-background:new 0 0 180.9 126.1;" xml:space="preserve">
<style type="text/css">
	.st0{fill-rule:evenodd;clip-rule:evenodd;fill:#F2F2F2;}
	.st1{fill-rule:evenodd;clip-rule:evenodd;fill:#00B9F2;}
	.st2{fill:#F2F2F2;}
</style>
<g>
	<path class="st0" d="M26.1,27.5c6.4,0.6,2.2,21.2-4.3,21.7C15.2,49.7,17.2,26.7,26.1,27.5L26.1,27.5z M19.6,56.4
		c18.7,0.4,21.4-34.1,5.6-35.4c-8.4-0.7-14.7,9.9-15.4,19.7C9.3,49.3,13.2,56.2,19.6,56.4L19.6,56.4z"/>
	<path class="st0" d="M77.3,33c1.5-1,3.1-2,4.7-2.6c1.6-0.6,3.4-0.6,4.7,0.7c1.7,1.9,0.1,7.2-0.9,6.2c-1.9-1.8-6.4-0.5-8.3,0.9
		c0,0.5,0,1,0.1,1.5c0.1,2.7-0.7,5.4-2.4,7.6c-1.3,1.8-3.3,3.2-5.4,3.7c-1.2,0.3-2.4,0.3-3.5-0.1c-0.9-0.3-1.7-1-2.2-1.9
		c-0.5-1-0.4-2.2,0-3.2c2.1-5.9,9.1-5.7,8.5-12.3c0,0,0,0,0,0c-0.3,0.7-0.6,1.4-0.9,2.1c-2,4.4-7.7,6.5-10.1,2
		c-0.2,0.3-0.4,0.6-0.6,0.9c-0.7,1-1.3,2.1-2.2,2.9c-1.1,1.1-2.3,1.8-3.8,2.3c-1.8,0.6-3.7,0.8-5.3-0.2C48.7,43,47.9,42,47.2,41
		c-0.3,0.9-0.7,1.8-1.2,2.7c-0.7,1.3-1.7,2.7-3,3.3c-1.1,0.5-2.2,0.4-3.3-0.1c-0.3-0.2-0.6-0.4-0.9-0.6c-0.8-0.7-1.2-1.8-1.4-2.9
		c-0.2-1.2-0.3-2.4-0.2-3.6c0.1-1.6,0.3-3.3,0.5-4.9c0.2-1.3,0.4-2.6,0.6-3.9c0.3-1.6,0.6-3.1,0.9-4.7c0.3-1.6,0.7-3.2,1.1-4.7
		c0.3-1.3,0.7-2.6,1.2-3.9c0.2-0.5,0.4-1,0.9-1.3c0.6-0.5,1.4-0.5,2.1-0.4c1.1,0.1,1.8,0.2,2.7,1l0.2,0.2l-0.1,0.3
		c0,0.3-0.2,0.6-0.3,0.9c-0.1,0.3-0.3,0.6-0.4,1c-0.2,0.3-0.3,0.7-0.4,1c-0.2,0.6-0.4,1.3-0.6,1.9c-0.2,0.9-0.5,1.7-0.7,2.6
		c-0.5,2.1-0.9,4.2-1.3,6.3c-0.2,1.3-0.4,2.5-0.6,3.8c-0.1,1.1-0.3,2.3-0.3,3.4c0,0.7-0.1,1.4,0,2.1c0,0.5,0.1,1.2,0.2,1.8
		c1.1-0.8,1.9-3,2.3-4.1c0.5-1.5,0.9-3.1,1.3-4.7c0.8-3.5,2.6-7.3,5.7-9.4c1-0.7,2.3-1.2,3.5-1.2c1.1,0,2.2,0.2,3,0.9
		c1.5,1.2,1.9,3.2,1.6,5c-0.3,1.9-1.3,3.6-2.6,5c-0.7,0.7-1.5,1.2-2.4,1.6c-1,0.5-2.2,0.7-3.3,0.9c0.1,1.2,0.5,2.7,1.8,3
		c0.7,0.2,1.4,0,2-0.3c0.3-0.2,0.7-0.3,1-0.6c0.3-0.2,0.5-0.4,0.8-0.6c2.2-1.9,3.1-4.8,3.7-7.6c0.7-2.9,1.9-6,3.8-8.4
		c1.2-1.5,2.8-2.9,4.9-2.7c1.1,0.1,2.1,0.6,3.1,1.1c0.1-0.2,0.1-0.4,0.2-0.6c0.2-0.5,0.4-1.1,0.8-1.5l0,0l0,0
		c0.7-0.5,1.8-0.6,2.6-0.4c0.8,0.2,2.1,0.6,2.5,1.4c0.1,0.3,0.2,0.5,0.2,0.8c0,0.3-0.1,0.5-0.3,0.8c-0.1,0.2-0.3,0.5-0.4,0.7
		c-0.4,0.8-0.7,1.6-0.9,2.5c-0.3,1.4-0.4,2.7-0.5,4.1c-0.1,1.6-0.1,3.2,0,4.8C77.3,32.7,77.3,32.9,77.3,33L77.3,33z M72.2,42.5
		c-0.9,0.7-1.7,1.4-2.6,2.2c-0.4,0.4-0.9,0.9-1.1,1.4c-0.1,0.2-0.1,0.5,0,0.7c0.3,0.4,0.9,0.4,1.3,0.2c1-0.4,1.6-1.6,1.9-2.6
		C71.9,43.8,72.1,43.2,72.2,42.5L72.2,42.5z M69,32.6c0.5-1,0.9-2,1.3-3c0.4-0.9,0.7-1.8,1-2.8c0.2-0.7,0.5-1.5,0.6-2.3
		c0.1-0.4,0.1-1-0.3-1.2c-0.4-0.2-1,0-1.3,0.3c-2.1,1.5-4.7,11-3.8,11.2C66.9,34.9,68,34.7,69,32.6L69,32.6z M55.6,26
		c-1.8,0.8-3.1,4.3-3.3,6.4C55.2,32,56,28.4,55.6,26L55.6,26z"/>
	<path class="st1" d="M75.5,58.3c5.4-19.4,23.4-17.2,35.5-23.1c2.8-1.4,5.2-4.2,6-4c0.4,0.1,0.8,2.1-1.8,7.7
		c-6.1,12.9-23.4,13.4-34.9,24.5c-3.9,3.8-5.6,7.1-6.4,6.7C73.3,69.8,73.1,66.9,75.5,58.3L75.5,58.3z"/>
	<path class="st2" d="M86.9,80.2c4.6-2.5,6.9,2.8,2.5,7.5c-2.4,2.5-5,3.1-7.2,2.9C82.5,86,84.3,81.6,86.9,80.2L86.9,80.2z M110,62.2
		c2.1,0,1.8,5.1,0.5,10.2C105.9,69.9,106.6,62.1,110,62.2L110,62.2z M99.6,107.2c6.8-6.9,11.9-17.6,15.1-27.2c1.9,0.1,3.6,0,4.5-0.2
		c-0.6,5-8.1,14.3-5.6,21.7c2.3,6.8,12.2,7.4,19.4,0c4.1-4.2,6.5-9.7,6.5-9.7s3.6,10,16.2,8.6c9-1,17-12.3,15.3-19.3
		c-1.9-7.8-9.8-6.1-9.8-6.1s1.3,5.5-1.6,12.3c-3.1,7-7.6,6.9-8.7,0.4c-1.3-7.6,1.8-15.6,4.2-24.6c10.9-2.1,14.5,2.1,14.5,2.1
		s5.2-4.6,2.9-9c-3-5.9-9.5-6-15.3-4.9c0.1-1.2,0.2-2.5,0.2-3.8c0.1-4.8-3.7-7.9-7.9-7.3c-3.9,0.6-6.5,2.2-6.5,2.2
		c0.6,3.6,0.6,7.9,0.4,12.2c-4.8,0.6-10.9,0.5-13.2-4.2c0,0-5.2,5.8-0.6,11.3c2.7,3.2,7.7,3.9,12.6,3.6c-0.8,4.7-1.8,9.1-2.7,12.6
		c-2.4,9-8,18.6-11.1,18.2c-3.1-0.4-0.6-5,2.7-12.5c3.7-8.3,2.1-12.7-0.5-13.5c-3.7-1.1-8.4,2-13.9,2.9c1-4,1.7-7.6,1.9-10.1
		c0.7-7.9-4.6-12.4-10.8-9.8c-6.2,2.5-10.5,10.6-8.2,18.1c1.4,4.4,4.9,6.7,8.6,7.9c-3.3,9.2-9.5,22.9-18.5,23.8
		c-4.3,0.4-6.6-2.7-7.4-6.7c1.2,0.1,2.4,0.1,3.7-0.1c4.4-0.6,10.5-4.1,12.2-11.5c2.1-8.6-2.7-16.2-11.6-15.1
		c-7.2,0.9-16.5,9.9-16.8,25.9C69.8,111.8,86.3,120.7,99.6,107.2L99.6,107.2z"/>
	<path class="st2" d="M32.8,117.4c10.1,5,21.5,1.5,27.4-4.6c4.9-5.1,8.6-16.1,3.2-22.1c-4.8-5.5-13-4.7-17.1-2.8
		c-5.5,2.5-6.1,7.2-6.1,9c-0.1,1.8,0.5,3.3,0.8,3.3c0.8,0,0.4-0.8,1.7-2.1c0.9-0.9,2.9-1.8,4.9-1c3.7,1.4,2.4,6.3,1.2,8.4
		c-1.4,2.5-5.8,4.8-9.5,3c-3.7-1.8-7.7-9.4-3.9-21.5c3.3-10.7,11.9-14.8,15.8-14.6c6,0.2,4.4,6,4,7.1c-0.4,1.1-3.6,3.6,2.5,2.3
		c8.3-1.7,12.3-9.4,10.8-17c-1.3-6.8-10.7-11.6-20-10.1c-22,3.7-27.1,22.2-28.5,33.1C18.5,98.6,22.7,112.4,32.8,117.4L32.8,117.4z"
		/>
	<path class="st0" d="M23.4,36.7c-5.5-1.3-8.1-11.7-5.2-13c2.6-1.2,2,0.4,1.6,0.5l-0.3-0.7c0,0.6,0,1.2,0.1,1.8
		c0.3,0.1,0.2,0.4,0.1,0.7c0.7,3.5,3.2,6.8,7.3,6.2C36,30.8,41.4,16,42.4,16.4C47.8,18.7,35.7,39.5,23.4,36.7L23.4,36.7z"/>
</g>
</svg>
